<?xml version="1.0" encoding="UTF-8"?>
<svg version="1.1" xmlns="http://www.w3.org/2000/svg" width="512" height="512">
<path d="M0 0 C1.81757812 0.45246094 1.81757812 0.45246094 3.671875 0.9140625 C42.158865 11.2500882 74.91939683 35.3553549 95 70 C107.35941715 92.87275655 114.14041945 117.44798041 114.1875 143.5 C114.18911133 144.38840576 114.19072266 145.27681152 114.19238281 146.19213867 C114.16015488 150.37755004 113.99791898 154.46148208 113.453125 158.61328125 C112.2653465 165.82638108 112.2653465 165.82638108 114.65625 172.41015625 C116.91936306 174.42105361 116.91936306 174.42105361 119.4609375 176.16796875 C137.01359131 188.83288358 145.70966789 215.49730301 149.53271484 235.83374023 C151.72255701 250.67180868 151.23327113 267.58631167 147 282 C146.67128906 283.19753906 146.34257812 284.39507812 146.00390625 285.62890625 C141.53953803 300.44319386 134.36939052 313.50665456 124 325 C123.30390625 325.83789062 122.6078125 326.67578125 121.890625 327.5390625 C104.75001452 347.74496464 79.06168476 359.91145032 53 363 C43.35902963 363.65532528 33.6868898 363.547611 24.02856159 363.50823963 C20.1730636 363.49698181 16.31762201 363.50912039 12.46212769 363.51808167 C4.93827014 363.53191528 -2.58541799 363.52453251 -10.10926726 363.50940608 C-18.89175012 363.49243001 -27.67419214 363.49577061 -36.45668635 363.49950016 C-52.13587174 363.50536028 -67.81497648 363.49127823 -83.49414062 363.46655273 C-98.67190572 363.442621 -113.84956317 363.43555726 -129.02734375 363.44604492 C-145.60341624 363.45747845 -162.17943913 363.45935544 -178.75551105 363.44494683 C-180.52595949 363.44342116 -182.29640793 363.44190081 -184.06685638 363.44038582 C-184.9376923 363.439628 -185.80852822 363.43887019 -186.7057531 363.43808941 C-192.81294992 363.43336667 -198.92012441 363.43518356 -205.02732086 363.43945122 C-212.47700055 363.44439993 -219.92657891 363.43829546 -227.37623551 363.41855692 C-231.16970437 363.40875005 -234.96301962 363.40350755 -238.75649643 363.41144943 C-274.64608174 363.47860189 -304.75263512 356.28985281 -331.28515625 330.74609375 C-353.2844278 308.49359317 -362.25861714 280.36306282 -362.2487793 249.69458008 C-362.16802239 240.72591524 -361.54249556 232.6424345 -359 224 C-358.6596875 222.77925781 -358.319375 221.55851563 -357.96875 220.30078125 C-353.59288525 205.91660423 -346.52148102 193.62277339 -337 182 C-336.31421875 181.14921875 -335.6284375 180.2984375 -334.921875 179.421875 C-319.86419754 161.6872771 -297.24781383 148.24075912 -274.125 144.9375 C-271.29749526 144.45338521 -271.29749526 144.45338521 -269 143 C-267.12799086 139.61598347 -266.10114026 136.35268472 -265.0546875 132.6328125 C-260.51247355 116.98740889 -247.20311471 105.13401539 -233.71875 97.02734375 C-215.31256298 87.0854698 -195.05883713 85.21583797 -175 91 C-173.32261501 91.63921969 -171.65149358 92.29658607 -170 93 C-169.91878906 92.36191406 -169.83757812 91.72382813 -169.75390625 91.06640625 C-166.77905948 78.96664088 -159.40088891 66.88712503 -152 57 C-151.360625 56.13890625 -150.72125 55.2778125 -150.0625 54.390625 C-140.48987151 42.13475973 -129.12061968 30.40330809 -116 22 C-115.02160156 21.3503125 -114.04320312 20.700625 -113.03515625 20.03125 C-80.17877678 -1.08780726 -38.25374277 -9.68763616 0 0 Z M-116.375 72.5625 C-128.23048799 86.45177463 -135.63570702 103.39673273 -139.984375 120.96484375 C-140.23912598 121.97212524 -140.23912598 121.97212524 -140.49902344 122.99975586 C-140.97292975 124.89191689 -141.42464956 126.78959457 -141.875 128.6875 C-143.53581026 133.57766354 -145.67333526 136.23053445 -150.125 138.8125 C-155.29808832 140.73994618 -160.86619938 141.01404517 -166.13671875 139.30859375 C-169.73586468 137.6186215 -172.7605334 135.45419968 -175.875 133 C-184.84019227 126.16772581 -193.83595429 124.6756491 -205 126 C-215.28819875 128.71310725 -222.76246206 134.07704263 -228.375 143.0625 C-231.73515392 148.85360327 -233.15683856 154.30549893 -233.875 160.9375 C-234.66546049 166.66381302 -235.36377352 170.47928599 -239 175 C-244.86927232 179.15675255 -250.1273402 179.82686601 -257.1875 180.5 C-276.22682242 182.69208125 -291.39729445 189.22572879 -305 203 C-305.62261719 203.60070312 -306.24523437 204.20140625 -306.88671875 204.8203125 C-319.93960379 218.37184709 -325.39019151 237.82662225 -325.21484375 256.1796875 C-324.06564935 276.61445342 -315.27302901 293.79024899 -300.59765625 307.78515625 C-284.00927661 321.92893257 -264.88204938 326.15673561 -243.64294434 326.14044189 C-242.42218342 326.14341302 -241.20142251 326.14638414 -239.94366884 326.1494453 C-236.57633559 326.15658792 -233.2090534 326.15930166 -229.84171629 326.16004276 C-226.20142777 326.16190333 -222.5611501 326.16945566 -218.92086792 326.17617798 C-210.97010128 326.18972155 -203.01933971 326.19577988 -195.06856346 326.20018864 C-190.09686045 326.20295796 -185.12515935 326.20719657 -180.15345764 326.21169281 C-166.367705 326.22388058 -152.58195389 326.23418067 -138.79619598 326.2375679 C-137.91500525 326.23778747 -137.03381452 326.23800703 -136.12592104 326.23823325 C-135.24271235 326.23845153 -134.35950367 326.23866981 -133.44953108 326.2388947 C-131.66003895 326.23933816 -129.87054682 326.23978472 -128.08105469 326.24023438 C-126.74960123 326.24056652 -126.74960123 326.24056652 -125.39124972 326.24090537 C-111.02172819 326.24484992 -96.65225747 326.26229567 -82.28275555 326.2855939 C-67.50295434 326.30936242 -52.72317857 326.32177226 -37.94335794 326.32293582 C-29.65591059 326.32384953 -21.36852947 326.32952464 -13.08110046 326.34775543 C-6.02169842 326.36323091 1.03761693 326.36823332 8.09703273 326.36001733 C11.69208973 326.35613691 15.28697255 326.35691097 18.8820076 326.37107468 C47.55313383 326.47735732 71.63799451 324.03779293 93 303 C106.1003387 289.92560257 112.82327244 271.49276441 113.3125 253.1875 C112.95194351 232.56817584 104.36635915 214.49215915 90 200 C87.15609438 197.36217449 84.19024937 194.9161463 81.1171875 192.55078125 C76.8551268 189.15361572 74.55637612 186.40154067 73 181 C72.45915982 175.32117806 73.26632393 170.6765423 74.5 165.125 C80.27499416 137.43412291 74.81319726 108.92349291 60 85 C42.91108777 58.93280717 18.76486705 43.05669076 -11.24609375 35.76171875 C-51.12553422 27.66963666 -89.26795165 43.35819452 -116.375 72.5625 Z " fill="#000000" transform="translate(362,76)"/>
</svg>
