<?xml version="1.0" encoding="UTF-8"?>
<svg version="1.1" xmlns="http://www.w3.org/2000/svg" width="512" height="512">
<path d="M0 0 C4.57465712 2.16694285 6.95849755 4.40075311 9 9 C9.36469283 12.77821772 9.28209711 16.52133883 9.1875 20.3125 C9.17396484 21.33923828 9.16042969 22.36597656 9.14648438 23.42382812 C9.11123883 25.94975909 9.061967 28.4746066 9 31 C10.00675781 31.03738281 11.01351563 31.07476563 12.05078125 31.11328125 C59.76969697 33.20101976 106.58544137 50.83899031 145 79 C145.57830566 79.4213623 146.15661133 79.84272461 146.75244141 80.27685547 C154.03421908 85.61877258 160.77564049 91.36550738 167.34375 97.5546875 C169.9395905 100.00564584 169.9395905 100.00564584 172.6328125 102.08203125 C174.83438996 103.86581761 176.56419577 105.64395152 178.375 107.8125 C180.56888556 110.38772619 182.79208491 112.80232904 185.25 115.125 C210.49834006 140.09155055 228.43136075 175.58101414 239 209 C239.35118896 210.07725342 239.35118896 210.07725342 239.70947266 211.17626953 C243.52585839 222.92464442 245.95226815 234.8291472 248 247 C248.22816406 248.27746094 248.45632813 249.55492187 248.69140625 250.87109375 C250.08548946 259.92776023 250.26461032 268.97392077 250.375 278.125 C250.41415527 280.03055664 250.41415527 280.03055664 250.45410156 281.97460938 C250.47557007 293.46332999 250.47557007 293.46332999 246 298 C240.76252495 302.06785829 235.3610082 301.74529524 229 301 C223.77935811 298.73443842 221.22439238 294.78805293 217.890625 290.3671875 C209.25256083 279.55176004 196.16443508 272.38962508 182.45703125 270.515625 C165.07054104 269.24844243 150.70485726 272.91238979 137 284 C132.76542513 287.72179432 129.31329545 291.63123889 126.3359375 296.421875 C123.75143422 299.47491396 121.02764493 300.84647566 117.09765625 301.43359375 C106.66394984 301.44702194 106.66394984 301.44702194 102 297 C100.19786793 294.80867509 98.47538872 292.57173119 96.76953125 290.3046875 C87.89312304 278.74380263 75.37332902 273.0746658 61.25 270.25 C45.09207578 269.00708275 30.94690422 273.40586697 18 283 C17.29035976 283.49091535 16.58071953 283.98183069 15.84957504 284.48762226 C12.19492329 287.46454259 10.26300081 289.7538245 9.27484894 294.43597984 C9.0017074 298.80783519 8.98943709 303.11425056 9.06347656 307.4909668 C9.06241792 309.16561964 9.05778052 310.84027344 9.04985046 312.51490784 C9.04039886 316.11115703 9.05598231 319.70610432 9.09122467 323.30219078 C9.14675843 328.99845548 9.14532821 334.69385873 9.13641357 340.39033508 C9.12891754 349.4094295 9.15862214 358.42794832 9.20463252 367.44691449 C9.28661388 383.57405207 9.32400674 399.70120111 9.32002425 415.82854396 C9.32033601 421.48019023 9.34277085 427.13117644 9.3835597 432.78267038 C9.405442 436.31342597 9.41089564 439.84408169 9.41248512 443.37489891 C9.4167056 444.99977475 9.42775705 446.62465112 9.4465313 448.24942398 C9.647806 466.28379829 4.96641611 481.44089022 -7.66015625 494.71875 C-20.80947338 507.5387854 -35.60385585 512.4225233 -53.63208008 512.36572266 C-70.53687097 512.05869571 -84.29044452 505.01031461 -96 493 C-107.72090839 480.37211655 -111.37438057 465.75900329 -111.37060547 449.05419922 C-111.37500485 446.87259282 -111.41148419 444.69297213 -111.44921875 442.51171875 C-111.45508392 441.10938182 -111.45905532 439.70703543 -111.4609375 438.3046875 C-111.46915527 437.04640137 -111.47737305 435.78811523 -111.48583984 434.49169922 C-110.78185223 429.43218625 -108.62687824 426.26356882 -104.62109375 423.15234375 C-99.87170897 421.06431319 -95.07751849 421.38079043 -90 422 C-85.41146462 424.17351676 -83.11316377 426.42744788 -81 431 C-80.54066049 434.39057695 -80.48808701 437.76926324 -80.4375 441.1875 C-80.21297542 452.73804205 -79.66999349 464.55151921 -70.8828125 473.046875 C-62.48297841 479.89118426 -54.68868289 480.97169844 -44 480 C-36.39873574 477.96492925 -30.33777754 473.56208617 -26.25 466.8125 C-20.9940332 457.64959787 -21.67239581 446.46352901 -21.61425781 436.24414062 C-21.59842308 434.672697 -21.58188326 433.10126036 -21.56469727 431.52983093 C-21.51268053 426.4053726 -21.48170613 421.28088478 -21.453125 416.15625 C-21.44239215 414.38393643 -21.43163712 412.611623 -21.42086029 410.83930969 C-21.3776839 403.46671109 -21.3402104 396.09412056 -21.31761551 388.72142792 C-21.28511251 378.19015359 -21.21861197 367.66035121 -21.10481381 357.12963152 C-21.02730942 349.70258365 -20.98833931 342.2759289 -20.97777438 334.84848738 C-20.97048724 330.42104933 -20.94666505 325.99518887 -20.88156891 321.56819153 C-20.82120493 317.40432639 -20.808848 313.24298537 -20.83233643 309.07877541 C-20.83277615 307.55739206 -20.81630797 306.03588787 -20.78102875 304.51491356 C-20.64728824 298.41371542 -20.54601082 293.08395259 -24.1644516 287.89776611 C-28.78217408 283.17720561 -33.7382358 279.31091232 -39.75 276.5625 C-40.42611328 276.23958984 -41.10222656 275.91667969 -41.79882812 275.58398438 C-56.76302295 268.7515929 -71.08514708 268.61051071 -86.5859375 273.87890625 C-97.11689931 278.29452006 -106.26503054 285.3288535 -112.6875 294.8125 C-115.05700871 298.07857958 -116.43484648 299.26339227 -120 301 C-125.34837549 301.79901707 -130.33090722 301.72432328 -135.3125 299.5625 C-138.29608588 296.71768556 -140.63257479 293.65163996 -143.109375 290.3671875 C-151.74743917 279.55176004 -164.83556492 272.38962508 -178.54296875 270.515625 C-195.92945896 269.24844243 -210.29514274 272.91238979 -224 284 C-228.23457487 287.72179432 -231.68670455 291.63123889 -234.6640625 296.421875 C-237.24856578 299.47491396 -239.97235507 300.84647566 -243.90234375 301.43359375 C-250.05071801 301.44150672 -254.31314296 301.4465054 -259 297 C-261.65441465 293.27775864 -262.38969607 290.70282815 -262.43359375 286.15234375 C-262.44503418 285.0039502 -262.45647461 283.85555664 -262.46826172 282.67236328 C-262.45811035 281.4398584 -262.44795898 280.20735352 -262.4375 278.9375 C-262.42992676 277.65343262 -262.42235352 276.36936523 -262.41455078 275.04638672 C-262.05366152 253.4904972 -258.16662336 232.61414094 -252 212 C-251.76555176 211.2044873 -251.53110352 210.40897461 -251.28955078 209.58935547 C-240.60582106 173.88896009 -221.0041102 140.86118728 -195.5625 113.75 C-193.25457931 111.27320706 -191.02673791 108.74771258 -188.8125 106.1875 C-185.15719559 102.06791297 -181.21458075 98.53365359 -177 95 C-176.07703125 94.18917969 -175.1540625 93.37835938 -174.203125 92.54296875 C-161.19765803 81.17482859 -147.01884774 71.50474204 -132 63 C-131.37254883 62.63841797 -130.74509766 62.27683594 -130.09863281 61.90429688 C-98.17541973 43.63023144 -58.13456708 30.50977469 -21 31 C-21.02094727 30.36497559 -21.04189453 29.72995117 -21.06347656 29.07568359 C-21.14704581 26.17561924 -21.19878774 23.27580884 -21.25 20.375 C-21.28351563 19.37597656 -21.31703125 18.37695312 -21.3515625 17.34765625 C-21.43035222 11.39903249 -21.23852011 7.57010501 -17 3 C-11.77740143 -1.05630398 -6.34659858 -0.77397544 0 0 Z M-46 78 C-46.86625 78.639375 -47.7325 79.27875 -48.625 79.9375 C-52.13608295 82.98659835 -55.04686518 86.41487134 -58 90 C-59.14855469 91.3921875 -59.14855469 91.3921875 -60.3203125 92.8125 C-94.61303128 135.81277433 -108.19345754 196.05290438 -110 250 C-108.92363281 249.52949219 -107.84726563 249.05898437 -106.73828125 248.57421875 C-81.2709069 237.62864142 -57.07863692 236.3144752 -31 246 C-28.25368005 247.23069957 -25.6495796 248.56922701 -23 250 C-22.34 250 -21.68 250 -21 250 C-21 188.62 -21 127.24 -21 64 C-29.44796628 64 -39.964078 72.85973094 -46 78 Z M9 64 C9 125.38 9 186.76 9 250 C13.05228307 248.64923898 16.7010374 247.28646313 20.5625 245.5625 C44.03710553 235.78622079 68.82007827 237.83880929 92.00390625 247.21484375 C94.02125504 248.10197209 96.01489448 249.04289555 98 250 C96.39482533 190.04672598 79.0633305 121.16973707 34.6640625 78.28515625 C26.99589131 71.18386894 18.94190737 67.31396912 9 64 Z M76 77 C77.27276994 80.50623643 78.75254356 83.2215058 81 86.1875 C102.30486652 116.11155525 113.92403891 153.31820795 121 189 C121.1861084 189.90137695 121.3722168 190.80275391 121.56396484 191.73144531 C125.48713776 210.94048856 127.10476334 230.50983713 129 250 C133.10556988 248.64799214 137.11480136 247.17562502 141.125 245.5625 C164.53451133 236.60558765 186.69346037 237.85706566 210 246 C211.99932123 246.66869953 213.99907983 247.33610022 216 248 C213.34252153 215.60567389 196.91282531 181.97076174 178 156 C177.60103516 155.44699219 177.20207031 154.89398438 176.79101562 154.32421875 C170.47418092 145.63729953 163.43786607 137.73612057 156 130 C155.48034668 129.45311523 154.96069336 128.90623047 154.42529297 128.34277344 C134.59789208 107.54445886 104.66703327 83.42323584 76 77 Z M-89 77 C-111.96530181 86.71817736 -133.07891835 98.6254176 -152 115 C-153.18916016 116.02287109 -153.18916016 116.02287109 -154.40234375 117.06640625 C-166.51174542 127.72346477 -177.39913813 139.04303617 -187 152 C-187.85023745 153.11980911 -188.7004977 154.2396009 -189.55078125 155.359375 C-196.30579846 164.39265746 -201.8115792 173.99749428 -207 184 C-207.39074707 184.74878418 -207.78149414 185.49756836 -208.18408203 186.26904297 C-217.4345384 204.2226144 -228 227.43235547 -228 248 C-226.1746875 247.38125 -226.1746875 247.38125 -224.3125 246.75 C-223.48363281 246.47800781 -222.65476562 246.20601562 -221.80078125 245.92578125 C-219.89601636 245.29617277 -217.99764881 244.64694513 -216.10546875 243.98046875 C-193.93270524 236.53376704 -169.88611847 237.36708449 -148.625 247.25 C-147.06652344 248.03117187 -147.06652344 248.03117187 -145.4765625 248.828125 C-143.15533388 250.14257286 -143.15533388 250.14257286 -141 250 C-140.89977539 248.97455078 -140.79955078 247.94910156 -140.69628906 246.89257812 C-135.03861599 189.41491707 -125.29169307 125.58790309 -88 79 C-88.33 78.34 -88.66 77.68 -89 77 Z " fill="#000000" transform="translate(262,0)"/>
</svg>
